<svg version="1.1" xmlns="http://www.w3.org/2000/svg" style="display: block;" viewBox="0 0 1736 1664" width="434" height="416" preserveAspectRatio="none">
<path transform="translate(0,0)" fill="rgb(255,255,254)" d="M 0 0 L 1736 0 L 1736 1664 L 0 1664 L 0 0 z"/>
<path transform="translate(0,0)" fill="rgb(18,108,240)" d="M 150.454 764.228 C 157.535 649.003 191.91 537.112 250.745 437.787 C 344.727 279.353 498.192 165.108 676.926 120.522 C 793.098 90.8216 915.091 92.6591 1030.32 125.844 C 1051.97 132.124 1081.57 141.076 1100.94 152.509 C 1106.53 155.947 1107.49 156.825 1112.08 161.557 C 1106.93 185.201 1095 204.225 1084.3 225.745 C 1076.13 242.53 1068.08 259.372 1060.15 276.269 C 1058.62 279.438 1053.05 291.468 1051.42 293.727 C 1046.49 305.598 1038.12 321.663 1029 330.535 C 1023.22 329.054 1017.47 327.494 1011.73 325.855 C 1001.42 324.886 984.882 319.619 974.555 316.923 C 961.001 313.469 947.323 310.522 933.55 308.085 C 848.334 291.866 760.35 298.368 678.444 326.937 C 650.812 336.589 624.692 349.289 599.031 363.304 C 595.775 365.083 582.042 373.458 579.17 374.295 C 531.478 406.418 505.959 427.94 468.601 471.189 C 450.042 494.76 431.09 517.595 416.426 543.735 C 414.979 546.316 409.289 556.779 407.616 558.173 C 397.904 581.518 386.702 599.872 377.086 625.746 C 339.915 725.115 335.081 833.687 363.275 935.967 C 369.943 956.813 377.036 978.757 385.652 998.793 C 423.963 1087.35 486.695 1163.17 566.511 1217.38 C 584.901 1229.86 604.529 1240.56 623.932 1251.39 C 618.966 1263.76 614.047 1275.42 607.45 1287.06 C 604.246 1295.56 562.999 1382.52 560.643 1384.99 L 559.113 1388.78 C 554.732 1399.47 546.873 1417.23 540.018 1426.04 C 531.551 1423.31 522.188 1419.74 514.823 1414.62 C 507.145 1412.46 485.548 1397.91 478.106 1393.26 C 378.348 1330.95 282.182 1231.79 229.705 1126.12 C 223.159 1113.42 214.898 1097.16 209.373 1084.23 C 206.724 1080.45 200.055 1063.68 198.142 1058.88 C 180.625 1014.95 168.932 971.497 159.56 925.301 C 151.704 865.682 147.197 825.239 150.454 764.228 z"/>
<path transform="translate(0,0)" fill="rgb(20,107,213)" d="M 363.275 935.967 C 352.911 923.418 349.62 906.047 349.151 889.967 L 349.534 891.557 C 349.444 878.984 347.631 871.475 346.439 859.23 C 345.028 843.722 343.96 828.186 343.237 812.631 C 342.691 814.184 342.87 819.887 342.469 822.512 L 341.657 821.49 C 340.842 785.713 337.795 753.426 346.45 718.479 C 347.873 712.734 348.579 697.306 352.173 692.922 L 353.685 693.872 L 355.255 692.3 C 356.276 688.906 356.581 688.396 356.446 684.939 C 355.526 686.993 354.384 690.571 352.814 691.501 C 351.886 686.308 357.753 672.016 359.821 666.122 C 358.804 669.818 358.552 670.434 358.49 674.199 L 359.486 674.342 C 359.486 674.604 364.471 655.456 364.872 654.326 C 367.409 647.182 365.167 643.9 366.589 637.388 L 367.514 637.152 C 370.342 642.392 366.035 642.201 367.477 646.862 C 371.706 630.77 391.439 577.926 399.323 564.766 C 399.225 566.459 399.173 568.161 398.976 569.846 L 400.001 569.697 C 402.421 564.267 403.337 562.322 407.616 558.173 C 397.904 581.518 386.702 599.872 377.086 625.746 C 339.915 725.115 335.081 833.687 363.275 935.967 z"/>
<path transform="translate(0,0)" fill="rgb(20,107,213)" d="M 1100.94 152.509 C 1106.53 155.947 1107.49 156.825 1112.08 161.557 C 1106.93 185.201 1095 204.225 1084.3 225.745 C 1076.13 242.53 1068.08 259.372 1060.15 276.269 C 1058.47 266.702 1069.03 257.617 1069.09 253.065 C 1069.46 229.314 1087.84 211.766 1095.94 189.721 C 1098.8 181.945 1097.9 174.567 1100.83 167.72 C 1103.7 167.093 1106.56 166.391 1109.39 165.616 C 1109.63 161.101 1103.66 157.029 1100.94 152.509 z"/>
<path transform="translate(0,0)" fill="rgb(20,107,213)" d="M 468.601 471.189 L 466.727 470.585 C 469.868 467.3 473.048 458.302 476.867 453.762 C 491.881 435.913 558.818 373.874 579.17 374.295 C 531.478 406.418 505.959 427.94 468.601 471.189 z"/>
<path transform="translate(0,0)" fill="rgb(20,107,213)" d="M 560.643 1384.99 L 559.201 1383.87 C 560.003 1381.11 564.156 1374.84 565.6 1370.37 C 573.363 1346.33 581.116 1325.99 595.546 1304.75 L 595.21 1305.55 C 600.728 1298.94 602.762 1289.14 607.45 1287.06 C 604.246 1295.56 562.999 1382.52 560.643 1384.99 z"/>
<path transform="translate(0,0)" fill="rgb(20,107,213)" d="M 150.454 764.228 C 155.494 773.921 151.87 822.985 151.994 837.244 C 152.152 855.429 161.95 911.578 159.56 925.301 C 151.704 865.682 147.197 825.239 150.454 764.228 z"/>
<path transform="translate(0,0)" fill="rgb(20,107,213)" d="M 1011.73 325.855 C 1013.69 325.014 1014.18 324.933 1016.29 325.094 C 1032.56 326.329 1033.86 311.074 1043.69 302.086 C 1047.3 298.794 1047.15 296.246 1051.42 293.727 C 1046.49 305.598 1038.12 321.663 1029 330.535 C 1023.22 329.054 1017.47 327.494 1011.73 325.855 z"/>
<path transform="translate(0,0)" fill="rgb(20,107,213)" d="M 514.823 1414.62 C 520.163 1414.02 528.151 1420.15 535.214 1422.36 C 543.149 1420.8 541.281 1421.38 541.195 1413.76 C 541.15 1409.86 544.946 1405.86 547.31 1402.53 C 548.177 1403.52 549.061 1404.48 549.961 1405.44 C 550.36 1400.98 555.269 1391.22 559.113 1388.78 C 554.732 1399.47 546.873 1417.23 540.018 1426.04 C 531.551 1423.31 522.188 1419.74 514.823 1414.62 z"/>
<path transform="translate(0,0)" fill="rgb(20,107,213)" d="M 209.373 1084.23 C 218.497 1090.68 231.344 1115.8 229.705 1126.12 C 223.159 1113.42 214.898 1097.16 209.373 1084.23 z"/>
<path transform="translate(0,0)" fill="rgb(25,56,102)" d="M 1448.34 471.781 C 1449.69 471.678 1450.48 471.982 1451.88 472.254 C 1455.49 475.669 1459.91 482.235 1462.22 486.619 C 1544.31 642.379 1557.58 822.542 1512.9 990.693 C 1464.25 1166.62 1348.77 1316.57 1191.1 1408.53 C 1086.85 1468.92 943.174 1502.03 822.54 1498.23 C 765.996 1496.45 699.871 1483.7 645.251 1469.16 C 639.919 1467.28 634.51 1465.44 629.32 1463.2 C 623.39 1460.63 614.01 1456.36 611.804 1449.82 C 603.726 1425.87 665.16 1300.52 679.355 1274.74 C 704.927 1280.6 725.173 1287.98 753.17 1293.46 C 848.046 1312.88 946.566 1303.36 1035.97 1266.14 C 1158.61 1215.32 1256.34 1118.31 1308.07 996.047 C 1351.94 890.496 1356.63 766.861 1324.6 657.686 C 1314.8 624.284 1301.53 592.666 1288.26 560.573 C 1300.59 549.918 1330.7 538.806 1346.4 532.006 C 1361.53 525.454 1376.37 518.251 1390.87 510.417 C 1412.91 498.26 1428.16 483.604 1447.08 472.512 L 1448.34 471.781 z"/>
<path transform="translate(0,0)" fill="rgb(7,13,33)" d="M 895.925 581.997 C 909.081 580.624 935.211 583.207 949.291 584.289 C 949.544 604.458 937.329 635.349 930.821 655.478 L 911.62 715.724 C 885.211 801.123 857.756 886.194 829.261 970.919 C 819.952 999.097 811.802 1027.58 802.34 1055.66 C 800.806 1060.21 798.412 1065.32 793.912 1067.36 C 777.202 1068.16 755.771 1066.04 739.451 1062.42 C 740.574 1036.43 770.893 960.78 780.547 931.375 L 851.909 710.82 C 859.93 686.24 867.821 661.618 875.58 636.954 C 880.061 622.87 888.526 593.879 895.925 581.997 z"/>
<path transform="translate(0,0)" fill="rgb(29,232,246)" d="M 1264.09 250.237 C 1314.87 249.208 1356.85 289.586 1357.8 340.369 C 1358.74 391.152 1318.3 433.064 1267.51 433.927 C 1216.85 434.789 1175.05 394.456 1174.11 343.789 C 1173.16 293.123 1213.43 251.262 1264.09 250.237 z"/>
<path transform="translate(0,0)" fill="rgb(7,13,33)" d="M 997.532 676.099 C 1016.73 676.617 1048.02 702.814 1064.32 714.01 C 1091.22 732.243 1118.32 750.19 1145.61 767.847 C 1158.56 776.055 1184.9 790.911 1195.29 800.89 C 1200.97 806.347 1198.89 841.806 1197.2 851.326 C 1183.89 866.422 1140.2 889.782 1121.97 902.396 C 1091.52 923.471 1058.22 943.72 1028.42 965.827 C 1003.57 983.015 986.24 992.415 985.231 951.683 C 984.971 941.173 984.267 934.475 986.554 923.777 C 997.434 912.056 1011.38 906.157 1024.3 897.085 C 1059.29 872.518 1097.32 852.659 1131.95 827.671 C 1101.66 805.922 1067.95 786.977 1036.59 766.686 C 1023.27 758.066 999.215 745.614 988.375 735.373 C 987.256 725.609 987.16 713.037 987.843 703.096 C 988.608 691.959 989.051 683.737 997.532 676.099 z"/>
<path transform="translate(0,0)" fill="rgb(7,13,33)" d="M 683.33 677.131 C 690.408 676.493 693.137 677.584 699.35 680.27 C 702.814 697.181 702.513 714.503 701.84 731.67 C 693.979 739.56 663.606 757.741 652.25 764.971 C 620.172 785.391 589.86 804.609 558.769 826.591 C 593.47 851.409 630.976 873.386 666.169 897.598 C 678.174 905.858 694.819 915.11 703.756 926.543 C 704.311 937.708 703.24 950.971 701.869 962.067 C 698.041 993.063 682.455 978.883 667.434 968.39 C 619.507 934.299 567.329 903.697 519.173 869.55 C 509.019 862.351 502.189 859.303 493.217 849.885 C 490.607 836.519 492.03 814.663 494.844 801.253 C 502.723 791.464 525.352 779.047 536.874 771.557 L 597.3 731.76 C 612.273 721.949 627.191 712.052 642.052 702.072 C 653.457 694.434 671.001 681.797 683.33 677.131 z"/>
</svg>