<svg version="1.1" xmlns="http://www.w3.org/2000/svg" style="display: block;" viewBox="0 0 2048 612" width="913" height="273" preserveAspectRatio="none">
<path transform="translate(0,0)" fill="rgb(19,108,241)" d="M 303.533 37.4383 C 331.427 34.9715 375.786 42.4188 402.076 53.7717 C 404.116 54.6527 409.184 58.2133 408.853 59.7356 C 405.202 76.5222 391.61 97.706 383.568 113.482 C 382.862 114.867 379.644 118.719 379.474 118.707 C 364.968 117.423 351.001 113.521 336.555 111.18 C 264.649 99.5259 193.273 134.069 154.613 196.047 C 128.815 238.259 120.624 288.913 131.804 337.104 C 145.437 395.46 179.788 430.275 228.671 460.72 C 227.316 464.274 225.651 467.982 224.14 471.5 C 219.39 482.602 204.672 514.443 198.316 523.681 C 180.258 517.281 152.763 495.926 138.788 483.076 C 89.0727 437.573 59.37 374.256 56.1591 306.937 C 50.0808 161.652 158.027 43.2678 303.533 37.4383 z"/>
<path transform="translate(0,0)" fill="rgb(25,56,103)" d="M 533.668 174.691 C 541.468 176.953 549.379 202.767 552.155 210.599 C 568.901 257.838 571.018 307.585 559.302 356.298 C 543.438 421.305 502.721 477.502 445.891 512.827 C 402.754 539.191 345.83 552.206 295.438 549.089 C 276.123 547.895 258.95 544.24 240.31 539.746 C 235.46 538.265 229.828 537.069 227.04 532.745 C 224.636 520.634 244.489 482.344 250.591 470.419 C 259.622 471.628 273.735 475.95 283.455 477.785 C 314.753 483.51 347.022 480.54 376.749 469.198 C 423.719 451.366 461.581 415.452 481.866 369.489 C 499.559 329.866 501.116 287.358 490.563 245.358 C 487.471 233.051 481.685 218.88 477.09 206.843 C 486.147 199.844 499.487 195.235 509.938 189.796 C 519.508 184.816 524.827 181.089 533.668 174.691 z"/>
<path transform="translate(0,0)" fill="rgb(190,195,251)" d="M 1202.36 98.0244 C 1212.75 97.3173 1231.08 97.7715 1241.43 98.2169 C 1242.73 114.54 1242.28 132.871 1242.04 149.327 C 1241.26 205.118 1242.92 261.298 1241.95 317.037 C 1231.27 317.673 1213.67 317.064 1202.48 316.984 C 1201.86 308.33 1201.3 299.673 1200.81 291.011 C 1197.67 294.484 1194.6 297.972 1191.65 301.606 C 1173.69 323.758 1143.98 325.152 1119.32 314.31 C 1110.87 309.276 1103.42 303.926 1097.66 295.642 C 1072.93 260.068 1074.35 192.518 1110.63 165.113 C 1135.38 146.416 1179.23 148.907 1194.56 178.232 C 1195.53 180.095 1197.73 181.924 1199.84 182.192 C 1202.21 177.501 1201.74 109.973 1202.36 98.0244 z M 1170.63 288.839 C 1179.64 284.991 1184.43 282.797 1190.98 274.893 C 1203.91 259.288 1205.3 227.608 1197.47 209.38 C 1193.22 199.271 1185.07 191.302 1174.87 187.274 C 1167.65 184.477 1162.51 184.397 1154.84 185.09 C 1106.74 199.348 1111.92 293.911 1170.63 288.839 z"/>
<path transform="translate(0,0)" fill="rgb(248,248,252)" d="M 1941.91 155.332 C 1954.6 154.513 1969.09 158.465 1979.41 165.627 C 1983.8 168.678 1991.17 174.857 1996.36 174.227 C 1997.26 167.226 1997.5 157.209 2005.13 154.386 C 2009.66 154.179 2019.47 158.905 2019.85 163.364 C 2021.73 191.11 2021.07 219.503 2021.05 247.501 C 2021.03 273.68 2026.44 326.619 2014.47 348.698 C 1994.48 385.569 1934.03 389.571 1901.56 367.972 C 1895.03 363.634 1884.11 356.268 1881.98 347.845 C 1882.17 346.719 1882.25 344.949 1883.1 344.346 C 1892.36 337.777 1901.16 340.669 1908.13 346.761 C 1925.49 365.163 1966.05 368.561 1984.75 350.886 C 2000.96 335.567 1998.53 310.524 1999.05 290.116 C 1987.4 303.975 1972.18 316.325 1953.87 318.568 C 1880.28 327.58 1854.58 230.209 1891.99 180.3 C 1904.72 163.312 1922.23 157.997 1941.91 155.332 z M 1957.25 298.023 C 2025.38 284.31 2001.45 163.742 1945.24 174.309 C 1933.47 175.768 1921.03 180.543 1914.2 190.774 C 1888.39 229.385 1896.34 304.948 1957.25 298.023 z"/>
<path transform="translate(0,0)" fill="rgb(248,248,252)" d="M 1464.18 97.1719 C 1471.04 96.8981 1478.39 97.6321 1485.46 97.6117 C 1512.58 97.5336 1541.8 96.291 1568.52 100.894 C 1596.66 105.743 1615.46 128.339 1617.54 156.347 C 1619.4 178.315 1611.92 203.259 1592.03 214.812 C 1584.44 219.22 1571.73 224.701 1575.44 233.528 C 1580.17 244.764 1587.96 254.603 1593.14 265.163 C 1600.89 280.967 1611.41 295.939 1617.82 311.949 C 1618.6 313.945 1616.82 316.127 1615.67 317.557 C 1605.05 322.149 1592.59 312.166 1587.03 303.524 C 1581.7 293.215 1551.66 236.775 1545.5 231.545 C 1542.59 230.387 1539.76 229.82 1536.65 229.603 C 1532.53 229.317 1493.65 229.151 1491.71 229.853 C 1481.01 233.72 1491.58 297.748 1485.01 310.884 C 1483.67 313.564 1481.36 315.441 1478.49 316.3 C 1474.58 317.474 1469.3 316.814 1465.7 314.947 C 1461.64 310.514 1462.76 285.788 1462.66 278.24 C 1462.23 246.578 1462.07 214.912 1462.19 183.247 C 1462.2 168.86 1459.44 104.277 1464.18 97.1719 z M 1576.89 198.698 C 1610.8 162.994 1586.34 113.287 1538.25 116.998 C 1525.2 118.004 1508.65 116.317 1495.03 116.824 C 1493.46 116.888 1491.9 116.978 1490.33 117.096 C 1488.43 120.264 1487.2 126.656 1487.33 130.112 C 1487.71 140.184 1484.92 202.906 1489.65 207.348 C 1502.77 211.823 1538.96 208.863 1554.17 209.04 C 1560.41 209.113 1571.71 202.582 1576.89 198.698 z"/>
<path transform="translate(0,0)" fill="rgb(190,195,251)" d="M 968.286 153.328 C 990.754 151.241 1012.79 154.806 1031.04 169.055 C 1046.68 181.651 1056.6 202.736 1058.72 222.368 C 1064.13 272.23 1043.12 314.65 988.704 320.639 C 942.582 327.286 903.706 298.241 898.668 251.901 C 893.076 200.449 913.265 159.799 968.286 153.328 z M 983.979 290.027 C 1025.56 280.855 1029.59 209.288 996.076 188.325 C 990.131 184.607 981.187 181.987 974.186 183.11 C 918.214 194.202 930.432 298.025 983.979 290.027 z"/>
<path transform="translate(0,0)" fill="rgb(190,195,251)" d="M 769.161 95.3714 C 788.68 91.746 822.078 100.964 837.992 112.512 C 859.688 128.256 868.817 145.991 873.31 171.723 C 859.939 172.937 846.501 173.231 833.089 172.601 C 832.259 171.322 831.179 169.25 830.493 167.895 C 817.953 143.112 804.097 129.169 774.507 131.137 C 727.96 134.234 713.977 179.327 716.528 219.034 C 718.915 256.192 742.519 289.329 782.724 286.019 C 799.001 284.692 810.638 278.155 821.068 265.805 C 825.013 259.534 828.412 252.936 831.228 246.084 C 842.96 244.297 860.706 245.312 872.557 246.079 C 867.968 287.808 837.718 313.944 797.728 319.47 C 732.991 328.568 682.31 294.259 675.015 227.423 C 667.257 156.348 695.212 104.748 769.161 95.3714 z"/>
<path transform="translate(0,0)" fill="rgb(190,195,251)" d="M 1343.25 153.401 C 1346.05 153.199 1348.84 153.112 1351.64 153.138 C 1408.96 154.239 1428.98 195.253 1427.75 246.083 C 1413.52 246.078 1315.83 244.385 1311.19 248.319 C 1309.41 255.873 1317.17 273.123 1322.13 278.862 C 1335.34 294.256 1362.25 296.658 1377.73 283.694 C 1389.56 273.791 1390.91 271.925 1406.09 271.892 C 1410.79 271.837 1420.5 271.268 1424.34 273.713 C 1426.02 278.754 1417.01 292.495 1413.67 296.385 C 1399.95 312.378 1381.42 318.508 1361.37 320.605 C 1314.98 325.455 1275.73 298.448 1272.3 250.049 C 1268 199.902 1287.98 158.009 1343.25 153.401 z M 1354.25 222.153 C 1364.33 222.057 1378.67 222.312 1388.35 221.141 C 1387.71 196.991 1373.54 181.426 1348.72 181.335 C 1337.04 182.293 1328.4 186.973 1321.07 196.015 C 1315.78 202.542 1306.75 213.088 1314.13 220.429 C 1320.56 222.821 1346.04 222.16 1354.25 222.153 z"/>
<path transform="translate(0,0)" fill="rgb(248,248,252)" d="M 1740.87 169.072 C 1743.86 167.499 1746.88 165.987 1749.93 164.537 C 1779.33 150.782 1824.47 148.797 1839.17 184.201 C 1850.77 212.139 1845.16 249.752 1844.79 279.46 C 1844.67 288.694 1847.36 306.071 1844.42 313.89 C 1843.16 315.323 1842.07 316.228 1840.32 316.766 C 1815.64 324.704 1822.96 301.746 1822.52 287.268 C 1821.76 261.896 1823.55 236.218 1822 210.893 C 1816.23 176.287 1781.24 163.706 1754.79 183.84 C 1748.23 188.903 1743.32 195.805 1740.69 203.668 C 1738.92 208.999 1737.54 216.709 1737.46 222.444 C 1737.16 250.882 1737.24 279.686 1736.56 308.06 C 1736.28 319.474 1714.63 324.712 1714.49 303.171 C 1714.19 258.077 1714.22 212.949 1713.88 167.85 C 1713.84 161.685 1713.91 158.644 1719.36 155.058 C 1725.79 155.517 1728.5 156.573 1734.48 158.938 C 1737.1 162.058 1738.88 165.524 1740.87 169.072 z"/>
<path transform="translate(0,0)" fill="rgb(9,14,35)" d="M 331.081 215.139 C 336.758 214.832 344.194 215.17 350.002 215.269 C 349.142 219.927 347.867 224.913 346.433 229.438 C 332.082 274.711 317.52 319.906 302.547 364.975 C 299.409 374.42 297.647 382.814 292.657 391.532 C 288.33 391.603 278.347 389.991 273.661 389.361 C 278.136 369.857 289.183 341.081 295.746 320.651 L 318.014 251.597 C 320.627 243.56 327.322 221.638 331.081 215.139 z"/>
<path transform="translate(0,0)" fill="rgb(31,232,247)" d="M 459.257 92.5513 C 471.11 89.71 483.574 93.5019 491.836 102.463 C 500.099 111.425 502.868 124.154 499.076 135.738 C 495.284 147.323 485.523 155.95 473.56 158.291 C 455.594 161.806 438.115 150.312 434.223 132.424 C 430.331 114.536 441.455 96.8185 459.257 92.5513 z"/>
<path transform="translate(0,0)" fill="rgb(248,248,252)" d="M 1263.99 388.633 C 1266.97 388.733 1268.01 388.608 1270.51 390.142 C 1271.53 396.333 1269.83 410.786 1269.9 417.943 C 1270.02 431.423 1272.32 461.869 1268.72 473.814 L 1266.09 475.163 C 1263.47 473.318 1265.32 472.034 1263.12 467.497 C 1252.59 467.386 1246.87 485.714 1224.04 471.673 C 1219.36 467.413 1215.97 463.149 1213.82 457.139 C 1210.49 447.637 1211.06 437.205 1215.39 428.118 C 1220.27 418.008 1230.41 410.643 1241.87 411.144 C 1251.24 411.553 1254 418.951 1261.55 422.691 C 1265.38 420.734 1258.41 399.611 1263.99 388.633 z M 1229.75 466.189 C 1235.75 469.024 1238.18 469.893 1244.76 470.972 C 1266.71 463.855 1266.26 437.326 1252.63 422.211 C 1249.34 421.086 1244.89 419.242 1241.54 419.264 C 1235.04 420.118 1231.45 420.361 1227.45 425.996 C 1218.64 438.424 1222.25 454.452 1229.75 466.189 z"/>
<path transform="translate(0,0)" fill="rgb(248,248,252)" d="M 785.943 412.27 C 821.664 411.029 828.044 464.656 796.304 475.685 C 780.71 481.104 773.582 465.79 766.305 468.156 C 764.837 470.845 766.056 474.853 766.629 478.047 C 767.125 485.022 768.983 495.587 763.542 500.343 L 761.405 500.186 C 755.968 495.972 757.047 424.403 759.549 414.851 C 761.322 412.9 761.568 412.599 764.114 412.014 C 767.995 414.524 764.777 419.034 766.534 422.064 C 776.235 419.293 775.673 413.738 785.943 412.27 z M 791.871 469.412 C 799.42 464.543 804.791 460.562 806.19 451.324 C 809.379 430.27 800.58 418.244 779.722 419.024 C 759.654 433.194 760.896 473.796 791.871 469.412 z"/>
<path transform="translate(0,0)" fill="rgb(248,248,252)" d="M 1656.56 155.762 C 1665.29 155.212 1673.88 157.488 1674.3 167.922 C 1675.19 189.635 1674.11 211.458 1674.16 233.198 C 1674.21 257.622 1675.05 282.196 1673.48 306.575 C 1673.24 310.252 1672.17 312.738 1669.82 315.558 C 1665.12 317.099 1660.03 319.145 1655.37 316.986 C 1652.1 313.523 1652.84 272.874 1652.77 265.24 C 1652.6 244.049 1652.54 222.857 1652.6 201.665 C 1652.61 190.325 1650.93 164.212 1656.56 155.762 z"/>
<path transform="translate(0,0)" fill="rgb(248,248,252)" d="M 1322.54 387.386 C 1323.98 387.725 1327.43 388.486 1328.29 389.365 C 1333.97 395.16 1329.42 413.496 1330.79 421.648 C 1338.3 421.391 1338.33 412.913 1348.19 412.022 C 1355.93 411.323 1361.78 412.318 1368.16 417.254 C 1374.02 421.858 1377.82 428.586 1378.75 435.977 C 1380.3 448.142 1378.13 457.981 1370.79 467.53 C 1363.7 473.334 1354.7 477.994 1345.35 474.548 C 1340.73 472.846 1337.18 470.149 1332.31 468.863 C 1329.45 469.874 1330.37 469.356 1328.67 472.842 C 1326.35 474.348 1327.38 474.091 1324.4 473.513 C 1319.76 469.077 1319.86 394.645 1322.54 387.386 z M 1357.8 468.337 C 1376.36 457.623 1376.17 428.498 1355.6 420.191 C 1353.84 419.479 1345.89 420.048 1343.54 420.187 C 1320.44 431.921 1327.28 478.046 1357.8 468.337 z"/>
<path transform="translate(0,0)" fill="rgb(9,14,35)" d="M 366.411 250.707 C 379.094 250.572 418.675 281.048 433.247 289.92 C 459.149 305.691 425.905 323.25 416.063 329.459 C 404.513 336.646 393.126 344.091 381.91 351.788 C 379.164 353.791 371.541 359.56 368.54 358.712 C 361.959 356.853 362.478 345.766 365.914 341.612 C 379.333 325.386 402.906 317.694 418.596 304.008 C 403.439 292.857 382.15 280.634 365.659 270.686 C 364.953 262.791 365.43 258.349 366.411 250.707 z"/>
<path transform="translate(0,0)" fill="rgb(9,14,35)" d="M 251.491 249.869 C 261.818 249.253 258.863 267.687 253.998 271.143 C 237.954 282.541 221.094 292.637 204.756 303.79 C 215.265 311.87 252.854 333.348 258.263 341.834 C 259.33 346.716 259.111 355.977 254.463 358.738 C 250.682 358.282 248.384 356.127 245.323 353.852 C 237.372 349.502 184.684 316.175 183.013 310.78 C 182.971 310.643 182.934 310.505 182.892 310.368 C 181.369 305.478 182.819 299.424 183.503 294.422 C 185.946 292.548 189.311 290.302 191.98 288.671 C 211.652 276.647 231.314 260.749 251.491 249.869 z"/>
<path transform="translate(0,0)" fill="rgb(248,248,252)" d="M 1052.75 412.327 C 1084.49 408.291 1099.94 436.211 1086.22 463.997 C 1082.22 472.091 1074.64 474.028 1066.45 475.892 C 1061.92 476.609 1053.95 475.65 1049.57 474.257 C 1042.75 472.111 1037.11 467.256 1033.98 460.83 C 1023.66 440.173 1033.26 421.905 1052.75 412.327 z M 1064.8 471.103 C 1088.92 460.79 1086.54 416.459 1056.51 419.172 C 1030.39 425.588 1036.49 473.455 1064.8 471.103 z"/>
<path transform="translate(0,0)" fill="rgb(248,248,252)" d="M 856.13 411.344 C 862.713 411.185 869.177 413.114 874.596 416.855 C 889.278 427.012 891.112 450.494 881.351 464.819 C 875.75 473.038 868.138 474.956 858.76 476.556 C 852.814 475.565 845.269 474.63 840.514 470.814 C 815.764 450.95 824.595 416.3 856.13 411.344 z M 862.671 470.438 C 886.714 458.167 881.861 416.14 853.127 419.23 C 828.033 427.373 834.134 475.075 862.671 470.438 z"/>
<path transform="translate(0,0)" fill="rgb(248,248,252)" d="M 1164.11 413.218 C 1165.09 413.086 1166.07 412.98 1167.05 412.9 C 1192.15 410.831 1200.47 424.098 1202.05 447.112 C 1188.46 447.67 1165.18 447.416 1151.71 446.969 C 1156.37 465.954 1164.89 474.982 1184.88 467.866 C 1188.65 464.3 1191.6 459.682 1197.28 461.373 C 1199.49 466.016 1192.72 471.5 1188.93 473.184 C 1158.59 486.652 1136.08 461.426 1145.91 431.429 C 1149.45 420.637 1154.84 417.701 1164.11 413.218 z M 1180.29 439.822 L 1194.38 440.241 C 1186.45 422.97 1185.73 417.436 1165.16 419.147 C 1161.3 422.185 1154.76 428.958 1153.4 433.691 C 1154.61 443.82 1172.73 440.061 1180.29 439.822 z"/>
<path transform="translate(0,0)" fill="rgb(248,248,252)" d="M 707.721 388.359 C 721.262 388.504 735.199 391.586 740.051 406.46 C 740.463 407.723 740.054 407.773 739.375 408.913 C 729.634 410.362 724.982 393.817 709.562 395.663 C 698.085 397.037 682.816 406.422 694.986 418.506 C 707.281 431.002 740.514 429.145 742.52 451.2 C 744.267 470.412 727.125 473.975 712.893 474.955 C 703.659 474.24 676.771 470.887 681.276 456.941 C 688.145 454.165 700.359 472.803 714.104 469.553 C 717.905 469.147 729.85 465.332 731.36 461.684 C 744.925 428.921 683.439 441.224 681.235 416.043 C 679.713 398.644 691.301 390.402 707.721 388.359 z"/>
<path transform="translate(0,0)" fill="rgb(248,248,252)" d="M 923.086 412.999 C 941.88 412.189 953.546 414.106 955.111 436.01 C 955.797 445.615 956.858 468.95 950.187 476.528 C 942.245 476.504 944.343 439.344 944.082 432.412 C 943.032 428.975 941.603 424.36 938.92 421.959 C 936.028 419.371 930.653 418.72 926.887 419.024 C 900.44 421.158 916.981 465.29 907.339 476.313 C 899.144 476.319 900.413 447.78 900.154 442.352 C 899.667 432.154 899.703 421.237 905.148 412.302 C 909.555 414.081 910.51 417.487 912.644 421.573 L 923.086 412.999 z"/>
<path transform="translate(0,0)" fill="rgb(248,248,252)" d="M 1437.25 412.765 C 1438.91 412.852 1440.71 413.044 1442.38 413.19 L 1443.05 414.489 C 1438.81 435.014 1428.25 455.427 1421.5 475.289 C 1418.37 484.484 1407.35 504.958 1395.23 499.894 C 1394.07 496.082 1407.02 490.293 1410.99 480.574 C 1409.46 473.024 1408.18 469.003 1405.7 461.756 C 1402.33 453.872 1388.2 422.054 1391.41 415.576 C 1405.47 416.988 1407.91 464.849 1418.44 462.213 C 1420.25 459.021 1423.98 445.849 1425.35 441.548 C 1428.85 430.551 1431.91 422.956 1437.25 412.765 z"/>
<path transform="translate(0,0)" fill="rgb(248,248,252)" d="M 989.341 412.148 C 997.224 411.776 1016.16 416.773 1017.87 424.943 C 1016.26 426.789 1016.07 426.346 1013.26 427.115 C 1007.12 426.697 994.162 407.433 981.313 424.127 C 973.776 433.919 989.804 438.634 997.043 440.089 C 1004.34 441.555 1017.9 445.253 1019.19 454.628 C 1020.93 471.508 1009.23 475.297 996.059 477.157 C 987.996 477.222 967.392 473.055 970.217 462.009 C 977.37 458.948 988.005 471.814 996.853 471.247 C 1003.4 470.828 1011.48 465.595 1011.45 458.785 C 1006.62 444.682 958.699 449.657 972.356 423.455 C 975.702 417.035 982.662 413.985 989.341 412.148 z"/>
<path transform="translate(0,0)" fill="rgb(248,248,252)" d="M 1658.04 95.0393 C 1665.87 94.4894 1674.71 97.0981 1678.55 104.541 C 1680.23 107.805 1680.52 111.612 1679.34 115.091 C 1677.35 121.156 1673.25 123.529 1667.94 126.146 C 1667.7 126.213 1667.46 126.278 1667.21 126.34 C 1661.3 127.835 1658.62 125.457 1653.42 122.344 C 1646.33 110.462 1645.99 103.438 1658.04 95.0393 z"/>
<path transform="translate(0,0)" fill="rgb(248,248,252)" d="M 1108.98 412.232 C 1116.2 413.52 1111 416.679 1115.2 422.117 C 1118.96 421.209 1127.12 409.171 1135.39 414.899 C 1133.23 427.122 1114.17 407.457 1115.02 450.15 C 1116.21 456.736 1116.31 468.279 1113.81 474.369 C 1111.15 476.637 1112.07 476.561 1109.17 476.554 C 1101.71 471.097 1104.34 420.84 1108.98 412.232 z"/>
</svg>