<svg version="1.1" xmlns="http://www.w3.org/2000/svg" style="display: block;" viewBox="0 0 2048 612" width="913" height="273" preserveAspectRatio="none">
<path transform="translate(0,0)" fill="rgb(19,108,242)" d="M 296.612 37.4259 C 312.847 33.1348 402.682 43.687 408.361 60.6803 C 408.3 70.5945 386.755 111.669 380.835 120.388 C 373.475 120.168 361.542 117.28 354.206 115.396 C 293.611 99.8406 225.677 117.579 181.183 163.21 C 146.234 198.605 126.92 246.525 127.558 296.263 C 128.366 357.023 154.943 407.778 202.877 443.497 C 209.646 448.541 221.195 454.646 226.81 460.11 C 227.924 464.01 227.587 462.973 226.43 467.246 C 224.082 473.027 203.404 521.095 197.403 522.036 C 191.697 522.931 173.828 510.959 167.589 506.633 C -32.2482 368.041 50.3432 55.3653 296.612 37.4259 z"/>
<path transform="translate(0,0)" fill="rgb(25,57,106)" d="M 534.063 173.905 C 542.568 179.632 550.665 204.393 553.796 213.993 C 569.624 260.953 571.49 311.495 559.17 359.495 C 542.348 424.854 500.46 480.957 442.574 515.657 C 380.613 552.306 309.109 557.983 240.271 540.289 C 235.013 538.602 229.428 537.534 226.591 532.771 C 224.342 520.917 244.445 481.821 250.354 470.245 C 257.822 471.167 270.663 474.818 278.678 476.453 C 303.494 481.636 329.145 481.313 353.822 475.506 C 402.453 463.993 444.424 433.437 470.318 390.693 C 495.682 349.42 502.165 299.166 491.568 252.06 C 487.901 235.764 481.032 222.055 477.488 207.226 C 479.454 204.159 491.053 198.73 494.788 197.139 C 509.418 190.911 521.351 183.434 534.063 173.905 z"/>
<path transform="translate(0,0)" fill="rgb(6,16,37)" d="M 1200.25 96.2621 C 1214.99 95.9287 1229.75 96.0713 1244.49 96.6897 C 1245.03 107.706 1244.44 122.86 1244.37 134.277 L 1244.1 209.343 L 1244.44 277.694 C 1244.54 291.269 1245.1 306.92 1244.22 320.285 C 1230.15 320.702 1215.07 320.068 1200.93 319.723 L 1200.37 293.094 C 1179.36 321.071 1159.42 330.551 1124.4 319.245 C 1112.15 313.525 1102.36 306.13 1094.75 294.826 C 1069.88 257.901 1073.15 188.505 1111.67 162.12 C 1125.84 152.471 1143.25 148.816 1160.1 151.952 C 1180.21 155.783 1189.4 167.497 1200.11 183.222 C 1200.53 155.692 1198.62 123.119 1200.25 96.2621 z M 1167.82 287.309 C 1179.9 283.624 1187.66 278.678 1193.7 267.132 C 1208.37 239.075 1200.18 184.227 1159.33 187.278 C 1116.41 194.023 1114.81 257.181 1142.96 281.023 C 1149.86 286.865 1159.1 287.342 1167.82 287.309 z"/>
<path transform="translate(0,0)" fill="rgb(121,122,133)" d="M 1937.81 155.331 C 1938.59 155.255 1939.37 155.19 1940.16 155.135 C 1955.66 154.05 1970.24 158.496 1982.48 168.121 C 1986.09 170.951 1993.55 182.408 1997.59 182.069 C 1998.64 177.391 1998.28 163.247 1998.26 157.712 C 2005.53 157.6 2013.7 157.93 2021.05 158.077 L 2020.95 267.615 C 2020.95 287.11 2022.99 330.248 2016.05 346.082 C 1994.91 394.309 1900.97 395.547 1880.76 344.509 C 1886.85 342.899 1897.12 340.565 1903.35 340.561 C 1917.32 356.061 1929.91 363.185 1951.83 362.304 C 1969.26 361.449 1990.42 352.488 1995.15 334.057 C 1996.99 326.884 2001.63 295.192 1996.61 290.698 C 1993.75 291.784 1989.69 297.388 1987.43 299.951 C 1967.61 322.479 1930.26 325.544 1906.21 307.599 C 1869.83 280.457 1864.83 217.851 1890.75 181.989 C 1903.08 164.938 1917.79 158.421 1937.81 155.331 z M 1950.25 297.472 C 2017.94 293.571 2011.73 175.011 1947.6 176.442 C 1936.76 177.151 1929.96 178.037 1920.85 184.853 C 1884.16 212.29 1895.34 301.919 1950.25 297.472 z"/>
<path transform="translate(0,0)" fill="rgb(121,122,133)" d="M 1461.88 96.1315 C 1520.21 97.8789 1639.01 77.3549 1614.15 187.167 C 1609.51 207.689 1590.34 217.976 1572.64 226.95 C 1575.57 233.896 1582.06 243.731 1585.72 250.754 C 1597.25 272.846 1612.6 295.939 1623.45 318.07 C 1606.66 318.394 1597.35 324.36 1588.18 307.458 C 1584.07 300.991 1578.02 288.607 1574.08 281.38 L 1546.16 230.93 C 1530.55 229.6 1503.57 230.292 1487.97 231.156 C 1486.43 257.15 1488.27 291.83 1487.91 319.104 L 1462.08 318.997 C 1461.48 294.681 1461.97 268.126 1461.95 243.667 L 1461.88 96.1315 z M 1487.76 207.998 C 1503.02 208.666 1518.9 208.609 1534.18 208.255 C 1549.57 207.897 1565.03 208.457 1577.07 197.626 C 1586.49 188.729 1591.42 180.197 1591.94 166.923 C 1593.21 134.332 1571.1 117.992 1540.16 118.79 C 1523.22 119.084 1505.55 118.15 1488.61 119.32 C 1487.29 121.98 1487.34 202.247 1487.76 207.998 z"/>
<path transform="translate(0,0)" fill="rgb(6,16,37)" d="M 964.139 152.04 C 1011.17 144.21 1055.63 175.998 1063.44 223.028 C 1071.24 270.058 1039.43 314.506 992.396 322.287 C 945.397 330.062 900.989 298.279 893.189 251.285 C 885.389 204.29 917.149 159.865 964.139 152.04 z M 986.042 287.684 C 1029.53 273.541 1027.56 179.354 970.351 186.256 C 963.559 188.577 957.06 191.908 952.749 197.684 C 929.593 228.707 936.71 292.79 986.042 287.684 z"/>
<path transform="translate(0,0)" fill="rgb(6,16,37)" d="M 767.74 93.4082 C 789.515 90.3814 820.247 97.2111 837.966 110.299 C 863.269 128.988 870.599 144.983 876.051 174.621 C 859.735 175.632 844.804 174.952 829.106 175.678 C 828.942 174.997 828.766 174.319 828.579 173.645 C 824.205 157.887 819.45 147.787 804.708 139.852 C 778.635 125.819 742.319 135.53 729.03 162.502 C 715.773 189.411 715.194 229.59 729.529 255.718 C 749.955 292.949 803.66 294.72 824.227 255.942 L 828.741 244.029 C 843.589 242.67 860.901 243.184 875.927 243.587 C 872.24 262.351 868.899 276.61 856.039 291.759 C 821.636 332.284 749.172 334.429 709.376 300.803 C 685.604 281.016 675.029 252.287 672.073 222.168 C 665.681 157.032 698.27 99.4698 767.74 93.4082 z"/>
<path transform="translate(0,0)" fill="rgb(6,16,37)" d="M 1342.61 151.338 C 1376.69 145.885 1416.2 170.089 1424.77 203.483 C 1429.09 220.315 1429.89 230.314 1429.11 247.715 L 1312.54 248.134 C 1314.44 275.598 1332.09 294.686 1360.66 290.051 C 1373.65 287.942 1380.24 280.507 1387.1 270.333 C 1396.56 270.211 1405.81 270.504 1415.25 270.777 L 1428.42 271.15 C 1425.38 280.263 1421.85 289.556 1415.89 297.16 C 1390.25 329.84 1330.96 331.471 1299.3 307.033 C 1263.58 279.455 1260.23 214.62 1287.13 179.892 C 1301.59 161.225 1319.96 154.113 1342.61 151.338 z M 1312.59 220.175 L 1361.12 220.346 C 1366.75 220.54 1379.76 221.378 1384.52 220.143 C 1391.78 212.808 1381.29 198.889 1375.49 193.451 C 1368.35 186.788 1358.82 183.293 1349.06 183.758 C 1346.83 183.862 1344.61 184.021 1342.38 184.235 C 1323.73 190.558 1316.6 201.059 1312.59 220.175 z"/>
<path transform="translate(0,0)" fill="rgb(121,122,133)" d="M 1784.56 155.299 C 1818.26 151.54 1844.17 175.433 1845.31 208.611 C 1845.8 222.916 1846.04 236.337 1846.02 250.686 L 1845.86 318.563 C 1837.93 318.636 1830 318.6 1822.06 318.456 C 1821.38 291.81 1826.09 217.255 1817.18 197.563 C 1813.33 189.05 1806.79 182.029 1797.91 178.791 C 1785.53 174.28 1770.69 176.641 1759.02 182.037 C 1757.96 182.762 1756.93 183.517 1755.92 184.302 C 1734.87 200.673 1738.52 220.476 1737.71 243.657 C 1736.9 266.932 1739.78 295.419 1736.93 318.226 C 1728.84 318.581 1722.66 318.509 1714.56 318.196 C 1713.18 306.304 1713.92 276.837 1713.92 263.666 C 1714.14 228.291 1713.92 192.916 1713.25 157.547 C 1720.66 157.117 1729.14 157.784 1736.62 158.172 C 1736.94 166.661 1737.32 174.428 1738.07 182.887 C 1755.87 163.166 1755.81 159.579 1784.56 155.299 z"/>
<path transform="translate(0,0)" fill="rgb(6,16,37)" d="M 329.921 215.008 C 336.273 214.244 344.25 214.988 350.75 215.368 C 347.48 230.03 340.898 249.101 336.217 263.893 C 328 290.54 319.46 317.086 310.597 343.526 C 307.646 352.47 297.453 386.264 293.476 392.761 C 286.455 392.297 279.402 391.228 272.426 390.273 C 275.646 378.506 279.416 366.466 283.625 355.024 C 300.241 309.859 312.075 259.471 329.921 215.008 z"/>
<path transform="translate(0,0)" fill="rgb(18,71,145)" d="M 1319.1 387.117 L 1331.91 386.784 C 1332.26 398.261 1332.11 408.551 1331.85 419.984 C 1337.63 414.711 1341.66 411.349 1349.6 410.113 C 1356.04 409.073 1362.63 410.689 1367.86 414.592 C 1384.57 426.979 1383.95 454.784 1372.25 470.607 C 1367.99 474.265 1362.68 477.642 1357.29 479.069 C 1346.02 482.052 1342.49 475.157 1333.98 470.217 C 1327.91 469.858 1334.28 473.202 1328.77 478.037 C 1325.27 478.456 1324.57 478.343 1321.15 477.431 C 1316.69 471.589 1319.06 399.127 1319.1 387.117 z M 1353.49 468.378 C 1377.25 458.754 1370.87 420.359 1348.71 421.018 C 1342.51 423.031 1337.2 425.679 1334.62 431.883 C 1327.55 448.841 1333.31 467.849 1353.49 468.378 z"/>
<path transform="translate(0,0)" fill="rgb(18,71,145)" d="M 784.562 410.184 C 826.193 406.564 827.848 473.246 792.591 478.924 C 782.765 480.507 775.326 474.148 768.198 468.395 C 768.626 472.754 768.782 477.936 769.03 482.375 C 769.261 488.897 769.163 496.205 769.218 502.791 L 755.842 503.141 C 756.179 474.045 754.888 440.456 756.274 412.094 L 757.392 411.27 C 761.294 410.964 763.939 410.544 767.776 411.481 C 767.956 414.578 768.115 417.127 768.553 420.227 C 774.192 415.592 777.578 411.951 784.562 410.184 z M 791.664 467.935 C 814.137 454.893 807.671 420.098 782.95 421.07 C 764.298 427.921 763.728 458.183 780.745 467.028 C 783.756 468.593 788.328 468.144 791.664 467.935 z"/>
<path transform="translate(0,0)" fill="rgb(25,57,106)" d="M 1260.11 387.663 C 1263.94 387.362 1267.99 386.657 1271.49 388.051 C 1273.76 393.826 1272.26 465.777 1272.15 477.536 C 1266.94 477.538 1265.81 478.377 1261.89 476.131 C 1260.52 473.118 1260.44 471.787 1260.03 468.594 C 1259.72 468.889 1259.4 469.181 1259.08 469.47 C 1252.78 475.173 1246.07 480.521 1237.16 479.543 C 1201.62 475.645 1202.22 406.691 1241.5 409.91 C 1250.19 410.622 1254.37 414.506 1259.83 420.831 C 1261.21 417.054 1260.17 393.785 1260.11 387.663 z M 1247.19 468.814 C 1267.41 456.28 1265.03 418.717 1236.95 421.209 C 1216.15 431.788 1219.41 470.504 1247.19 468.814 z"/>
<path transform="translate(0,0)" fill="rgb(18,71,145)" d="M 1260.11 387.663 C 1263.94 387.362 1267.99 386.657 1271.49 388.051 C 1273.76 393.826 1272.26 465.777 1272.15 477.536 C 1266.94 477.538 1265.81 478.377 1261.89 476.131 C 1260.52 473.118 1260.44 471.787 1260.03 468.594 C 1262.7 456.3 1262.34 433.124 1259.83 420.831 C 1261.21 417.054 1260.17 393.785 1260.11 387.663 z"/>
<path transform="translate(0,0)" fill="rgb(121,122,133)" d="M 1652.09 157.903 C 1658.02 157.345 1669.35 157.984 1675.73 158.194 C 1674.73 210.827 1676.71 265.875 1675.08 317.65 C 1670.8 318.565 1657.4 318.236 1652.52 318.198 C 1651.24 299.877 1652.09 273.751 1652.09 254.922 C 1651.77 222.583 1651.77 190.242 1652.09 157.903 z"/>
<path transform="translate(0,0)" fill="rgb(31,232,247)" d="M 461.003 92.0909 C 479.482 88.8419 497.133 101.075 500.578 119.52 C 504.023 137.964 491.978 155.744 473.571 159.384 C 461.489 161.773 449.055 157.488 441.011 148.163 C 432.966 138.837 430.552 125.909 434.688 114.308 C 438.824 102.708 448.873 94.2234 461.003 92.0909 z"/>
<path transform="translate(0,0)" fill="rgb(6,16,37)" d="M 367.056 248.839 C 369.418 249.215 371.877 249.633 374.069 250.63 C 380.678 253.637 440.389 293.467 441.277 295.928 C 441.321 296.05 441.36 296.175 441.403 296.297 C 443.161 301.301 442.14 308.169 441.923 313.444 C 436.185 318.4 424.413 325.338 417.646 329.657 C 405.062 337.724 392.614 346.001 380.307 354.484 C 375.369 357.946 372.835 360.723 366.762 358.978 C 362.334 354.193 363.582 346.189 363.711 339.506 C 377.475 328.04 402.252 316.411 417.356 303.848 C 399.727 292.656 381.965 281.672 364.076 270.9 C 364.001 262.963 363.511 256.104 367.056 248.839 z"/>
<path transform="translate(0,0)" fill="rgb(18,71,145)" d="M 1054.88 410.189 C 1095.87 404.1 1108.37 465.922 1066.73 479.214 C 1020.27 482.738 1017.45 417.913 1054.88 410.189 z M 1064.72 469.187 C 1087.29 457.611 1083.7 418.949 1056.98 421.217 C 1035 428.036 1036.14 468.28 1064.72 469.187 z"/>
<path transform="translate(0,0)" fill="rgb(18,71,145)" d="M 854.646 409.299 C 898.311 410.297 900.775 473.323 859.178 479.6 C 816.858 478.043 813.957 416.573 854.646 409.299 z M 863.397 468.487 C 882.814 457.544 881.074 418.582 852.134 421.221 C 830.814 433.471 834.058 471.422 863.397 468.487 z"/>
<path transform="translate(0,0)" fill="rgb(6,16,37)" d="M 252.592 248.806 C 262.173 252.109 259.446 260.488 259.051 269.552 C 245.617 279.323 220.497 294.15 205.729 303.702 C 221.281 315.725 242.76 327.436 259.904 340.284 C 259.574 346.972 260.784 356.714 254.215 359.546 C 250.842 359.498 248.263 357.274 245.436 355.352 C 224.175 341.399 203.033 327.265 182.012 312.953 C 181.829 305.681 182.121 301.576 182.806 294.402 C 194.58 285.112 240.233 254.555 252.592 248.806 z"/>
<path transform="translate(0,0)" fill="rgb(18,71,145)" d="M 702.451 386.311 C 707.029 385.91 713.05 385.646 717.566 386.166 C 728.21 387.39 742.782 396.456 740.862 408.896 C 738.963 411.772 739.993 410.959 736.76 412.141 C 727.989 410.978 729.134 405.379 720.06 398.032 C 713.333 397.473 708.827 397.814 702.161 398.227 C 682.279 412.367 698.456 424.004 713.793 426.654 C 751.281 433.133 756.125 470.745 716.579 479.244 C 702.383 479.957 680.35 476.243 677.636 456.928 C 677.33 454.747 678.698 453.66 680.165 452.367 C 687.538 451.286 689.33 456.244 694.222 460.818 C 705.933 471.769 724.811 473.119 730.976 455.566 C 732.173 452.161 728.851 447.436 727.101 444.566 C 709.815 434.967 665.802 434.632 682.769 398.707 C 685.982 391.906 695.563 388.072 702.451 386.311 z"/>
<path transform="translate(0,0)" fill="rgb(18,71,145)" d="M 1169.96 410.338 C 1194.82 406.854 1201.43 427.611 1203.52 447.569 C 1187.34 448.183 1169.91 447.101 1153.98 448.814 C 1159.23 468.694 1175.66 478.499 1190.17 460.066 C 1194.4 458.818 1198.77 458.255 1200.21 462.926 C 1198.24 470.754 1186.7 478.256 1178.96 479.278 C 1145.75 483.663 1132.07 445.572 1149.47 421.4 C 1154.75 414.06 1161.25 411.397 1169.96 410.338 z M 1153.44 438.094 C 1161.34 438.319 1169.36 438.669 1177.25 438.341 C 1180.99 438.483 1185.15 439.136 1188.2 437.222 C 1190.1 434.219 1189.72 435.52 1189.69 431.949 C 1185.6 422.551 1177.21 420.407 1167.87 421.15 C 1159.34 425.433 1157.25 429.107 1153.44 438.094 z"/>
<path transform="translate(0,0)" fill="rgb(18,71,145)" d="M 1393.6 411.346 C 1394.21 411.24 1394.72 411.149 1395.34 411.302 C 1402.59 413.101 1410.4 453.526 1415.41 461.841 L 1416.77 461.892 C 1422.64 454.767 1429.86 398.162 1445.48 412.316 C 1444.63 421.483 1433 450.317 1429.32 461.04 C 1423.23 474.262 1419.88 497.43 1404.89 502.086 C 1401.7 503.075 1394.06 504.04 1391.14 502.479 C 1389.58 495.843 1389.95 495.335 1395.51 493.286 C 1404.44 490.001 1406.15 486.958 1409.99 478.555 C 1407.23 472.92 1403.75 462.339 1401.39 456.043 C 1395.89 441.705 1390.55 427.306 1385.37 412.848 C 1387.08 411.191 1391.01 411.461 1393.6 411.346 z"/>
<path transform="translate(0,0)" fill="rgb(25,57,106)" d="M 988.873 410.105 C 994.546 409.336 1001.48 410.174 1006.92 412.144 C 1011.98 413.98 1020.68 421.97 1018.19 427.734 C 1009.2 431.32 985.754 408.018 981.651 429.079 C 985.105 442.623 1020.12 437.271 1021.21 456.012 C 1022.18 472.641 1009.84 477.964 995.34 479.659 C 985.582 479.162 968.02 474.399 968.543 461.962 C 971.661 459.014 970.31 459.595 974.077 458.786 C 982.116 460.449 984.47 470.223 993.024 470.013 C 1000.41 469.832 1010.79 466.671 1008.41 457.32 C 1000.65 447.333 973.991 450.813 969.763 433.717 C 966.399 420.117 977.367 412.938 988.873 410.105 z"/>
<path transform="translate(0,0)" fill="rgb(18,71,145)" d="M 913.198 419.526 C 918.853 413.164 921.568 410.84 930.179 410.242 C 959.64 408.195 956.202 438.608 955.914 458.773 C 955.819 465.482 957.07 478.462 947.813 479.329 C 936.01 474.213 957.159 411.262 922.61 422.375 C 919.738 423.299 915.691 426.797 913.74 429.035 L 913.198 419.526 z"/>
<path transform="translate(0,0)" fill="rgb(18,71,145)" d="M 913.74 429.035 C 912.287 438.999 913.669 472.009 910.869 476.968 C 908.604 478.555 902.553 478.328 900.541 476.434 C 899.728 471.156 898.686 416.632 899.995 412.29 C 903.156 410.616 907.112 410.303 910.448 411.654 C 911.912 412.247 911.827 416.548 912.958 419.016 L 913.198 419.526 L 913.74 429.035 z"/>
<path transform="translate(0,0)" fill="rgb(18,71,145)" d="M 1120.31 425.947 C 1110.51 440.033 1122.41 470.924 1111.1 479.565 C 1097.58 480.842 1106.6 440.501 1103.33 430.801 C 1101.7 425.97 1102.79 412.129 1109.52 410.093 C 1119.97 412.048 1112.53 414.35 1117.02 418.955 C 1119.01 420.413 1119.47 423.449 1120.31 425.947 z"/>
<path transform="translate(0,0)" fill="rgb(121,122,133)" d="M 1663.24 94.5497 C 1672.31 94.2519 1679.93 101.344 1680.27 110.419 C 1680.61 119.494 1673.56 127.143 1664.49 127.534 C 1655.35 127.928 1647.63 120.813 1647.29 111.671 C 1646.94 102.53 1654.09 94.8497 1663.24 94.5497 z"/>
<path transform="translate(0,0)" fill="rgb(25,57,106)" d="M 1124.73 411.87 C 1128.86 411 1132.78 409.803 1136.87 410.636 C 1139.11 413.029 1138.44 412.335 1139.14 416.106 C 1136.46 423.962 1128.16 421.387 1120.31 425.947 C 1119.47 423.449 1119.01 420.413 1117.02 418.955 L 1124.73 411.87 z"/>
</svg>